<?xml version="1.0" encoding="UTF-8" standalone="no"?>
<!-- Created with Inkscape (http://www.inkscape.org/) -->

<svg
   width="24mm"
   height="24mm"
   viewBox="0 0 24 24"
   version="1.1"
   id="svg5"
   inkscape:version="1.1 (c68e22c387, 2021-05-23)"
   sodipodi:docname="favicon.svg"
   xmlns:inkscape="http://www.inkscape.org/namespaces/inkscape"
   xmlns:sodipodi="http://sodipodi.sourceforge.net/DTD/sodipodi-0.dtd"
   xmlns="http://www.w3.org/2000/svg"
   xmlns:svg="http://www.w3.org/2000/svg">
  <sodipodi:namedview
     id="namedview7"
     pagecolor="#ffffff"
     bordercolor="#666666"
     borderopacity="1.0"
     inkscape:pageshadow="2"
     inkscape:pageopacity="0.0"
     inkscape:pagecheckerboard="0"
     inkscape:document-units="mm"
     showgrid="false"
     inkscape:zoom="4"
     inkscape:cx="17.875"
     inkscape:cy="28.625"
     inkscape:window-width="1858"
     inkscape:window-height="1057"
     inkscape:window-x="54"
     inkscape:window-y="-8"
     inkscape:window-maximized="1"
     inkscape:current-layer="svg5" />
  <defs
     id="defs2" />
  <rect
     style="fill:#faea68;fill-opacity:1;stroke-width:1.965;stroke-linecap:round"
     id="rect901"
     width="24"
     height="24"
     x="0"
     y="-0.04257454"
     inkscape:label="background"
     rx="7.7859373" />
  <g
     id="g2511"
     transform="matrix(0.0625,0,0,0.0625,5.373625,5.3735625)">
    <path
       d="M 167.871,0 H 44.84 C 34.82,0 26.022,8.243 26.022,18 v 182 c 0,3.266 0.909,5.988 2.374,8.091 1.752,2.514 4.573,3.955 7.598,3.954 2.86,0 5.905,-1.273 8.717,-3.675 l 55.044,-46.735 c 1.7,-1.452 4.142,-2.284 6.681,-2.284 2.538,0 4.975,0.832 6.68,2.288 l 54.86,46.724 c 2.822,2.409 5.657,3.683 8.512,3.683 4.828,0 9.534,-3.724 9.534,-12.045 V 18 c 0,-9.757 -8.131,-18 -18.151,-18 z"
       id="path2458" />
    <g
       id="g2460">
</g>
    <g
       id="g2462">
</g>
    <g
       id="g2464">
</g>
    <g
       id="g2466">
</g>
    <g
       id="g2468">
</g>
    <g
       id="g2470">
</g>
    <g
       id="g2472">
</g>
    <g
       id="g2474">
</g>
    <g
       id="g2476">
</g>
    <g
       id="g2478">
</g>
    <g
       id="g2480">
</g>
    <g
       id="g2482">
</g>
    <g
       id="g2484">
</g>
    <g
       id="g2486">
</g>
    <g
       id="g2488">
</g>
  </g>
</svg>
