<?xml version="1.0" encoding="UTF-8" standalone="no"?>
<!-- Created with Inkscape (http://www.inkscape.org/) -->

<svg
   width="24mm"
   height="24mm"
   viewBox="0 0 24 24"
   version="1.1"
   id="svg5"
   inkscape:version="1.1 (c68e22c387, 2021-05-23)"
   sodipodi:docname="favicon-payment.svg"
   xmlns:inkscape="http://www.inkscape.org/namespaces/inkscape"
   xmlns:sodipodi="http://sodipodi.sourceforge.net/DTD/sodipodi-0.dtd"
   xmlns="http://www.w3.org/2000/svg"
   xmlns:svg="http://www.w3.org/2000/svg">
  <sodipodi:namedview
     id="namedview7"
     pagecolor="#ffffff"
     bordercolor="#666666"
     borderopacity="1.0"
     inkscape:pageshadow="2"
     inkscape:pageopacity="0.0"
     inkscape:pagecheckerboard="0"
     inkscape:document-units="mm"
     showgrid="false"
     fit-margin-top="0"
     fit-margin-left="0"
     fit-margin-right="0"
     fit-margin-bottom="0"
     inkscape:zoom="3.1072952"
     inkscape:cx="-26.228599"
     inkscape:cy="71.605685"
     inkscape:window-width="1858"
     inkscape:window-height="1057"
     inkscape:window-x="54"
     inkscape:window-y="-8"
     inkscape:window-maximized="1"
     inkscape:current-layer="g949" />
  <defs
     id="defs2" />
  <g
     id="g863"
     transform="translate(0,0.04257454)">
    <rect
       style="fill:#faea68;fill-opacity:1;stroke-width:1.965;stroke-linecap:round"
       id="rect901"
       width="24"
       height="24"
       x="0"
       y="-0.04257454"
       inkscape:label="background"
       rx="7.7859373" />
    <g
       id="g949"
       transform="matrix(0.26458333,0,0,0.26458333,-24.088642,1.0730437)">
      <g
         id="g892"
         transform="matrix(0.84647573,0,0,0.84647573,105.36999,10.110211)">
	<g
   id="g890">
		<g
   id="g888">
			<path
   d="m 66.368,20.672 c 0.224,0 0.224,0 0.447,0 L 63.456,7.682 C 62.56,3.873 58.527,1.633 54.943,2.753 L 5.217,15.969 c -3.808,0.896 -6.048,4.928 -4.928,8.512 l 4.256,16.128 v -9.632 c 0,-5.822 4.704,-10.526 10.528,-10.526 h 51.295 z"
   id="path884" />

			<path
   d="m 66.368,24.256 h -51.52 c -3.808,0 -6.943,3.137 -6.943,6.944 v 32.702 c 0,3.81 3.136,6.944 6.943,6.944 h 51.52 c 3.808,0 6.943,-3.137 6.943,-6.944 v -32.7 c 0.002,-3.81 -3.135,-6.946 -6.943,-6.946 z m 2.241,39.649 c 0,1.345 -1.119,2.239 -2.239,2.239 H 14.85 c -1.344,0 -2.239,-1.119 -2.239,-2.24 v -8.286 h 56.223 v 8.286 z m 0,-24.416 h -56 v -8.287 c 0,-1.345 1.12,-2.24 2.239,-2.24 h 51.52 c 1.345,0 2.239,1.12 2.239,2.24 z"
   id="path886" />

		</g>

	</g>

</g>
      <g
         id="g894">
</g>
      <g
         id="g896">
</g>
      <g
         id="g898">
</g>
      <g
         id="g900">
</g>
      <g
         id="g902">
</g>
      <g
         id="g904">
</g>
      <g
         id="g906">
</g>
      <g
         id="g908">
</g>
      <g
         id="g910">
</g>
      <g
         id="g912">
</g>
      <g
         id="g914">
</g>
      <g
         id="g916">
</g>
      <g
         id="g918">
</g>
      <g
         id="g920">
</g>
      <g
         id="g922">
</g>
    </g>
  </g>
</svg>
